<?xml version="1.0" encoding="utf-8"?>
<!-- Generator: Adobe Illustrator 16.0.3, SVG Export Plug-In . SVG Version: 6.00 Build 0)  -->
<!DOCTYPE svg PUBLIC "-//W3C//DTD SVG 1.1//EN" "http://www.w3.org/Graphics/SVG/1.1/DTD/svg11.dtd">
<svg version="1.1" id="レイヤー_1" xmlns="http://www.w3.org/2000/svg" xmlns:xlink="http://www.w3.org/1999/xlink" x="0px"
	 y="0px" width="653.9px" height="52px" viewBox="0 0 653.9 52" enable-background="new 0 0 653.9 52" xml:space="preserve">
<path fill="#FFFFFF" d="M298.8,51.5h-6.3c-0.3,0-0.5-0.2-0.5-0.5V6.5h-12.6c-0.3,0-0.5-0.2-0.5-0.5V1c0-0.3,0.2-0.5,0.5-0.5h32.4
	c0.3,0,0.5,0.2,0.5,0.5v5c0,0.3-0.2,0.5-0.5,0.5h-12.6V51C299.3,51.3,299.1,51.5,298.8,51.5z M293.1,50.5h5.3V6
	c0-0.3,0.2-0.5,0.5-0.5h12.6v-4H280v4h12.6c0.3,0,0.5,0.2,0.5,0.5V50.5z"/>
<path fill="#FFFFFF" d="M344.9,51.5h-26.8c-0.3,0-0.5-0.2-0.5-0.5V1c0-0.3,0.2-0.5,0.5-0.5h26.4c0.3,0,0.5,0.2,0.5,0.5v5
	c0,0.3-0.2,0.5-0.5,0.5h-19.7v15H342c0.3,0,0.5,0.2,0.5,0.5v5c0,0.3-0.2,0.5-0.5,0.5h-17.1v18h20c0.3,0,0.5,0.2,0.5,0.5v5
	C345.4,51.3,345.2,51.5,344.9,51.5z M318.6,50.5h25.8v-4h-20c-0.3,0-0.5-0.2-0.5-0.5V27c0-0.3,0.2-0.5,0.5-0.5h17.1v-4h-17.1
	c-0.3,0-0.5-0.2-0.5-0.5V6c0-0.3,0.2-0.5,0.5-0.5h19.7v-4h-25.4V50.5z"/>
<path fill="#FFFFFF" d="M368.5,52c-5.1,0-9.3-2-12.3-5.9c-3-3.9-4.5-9.1-4.5-15.7v-9c0-6.6,1.6-11.8,4.6-15.6
	C359.4,2,363.7,0,369.1,0c4.9,0,8.8,1.4,11.5,4.3c2.7,2.8,4.2,7,4.4,12.3c0,0.1,0,0.1,0,0.2c0,0.3-0.2,0.5-0.5,0.5c0,0,0,0,0,0h-6.3
	c-0.3,0-0.5-0.2-0.5-0.5c-0.3-3.9-1.1-6.8-2.5-8.4c-1.3-1.6-3.4-2.4-6.2-2.4c-3.2,0-5.7,1.3-7.4,3.8c-1.8,2.6-2.6,6.5-2.6,11.6v9.3
	c0,5,0.8,8.9,2.5,11.5c1.6,2.6,3.9,3.9,7,3.9c3.1,0,5.3-0.8,6.7-2.3c1.4-1.5,2.2-4.4,2.6-8.4c0-0.3,0.2-0.5,0.5-0.5h6.3
	c0.1,0,0.3,0.1,0.4,0.2c0.1,0.1,0.1,0.2,0.1,0.4c-0.3,5.4-1.8,9.6-4.6,12.4C377.6,50.6,373.6,52,368.5,52z M369.1,1
	c-5,0-9.1,1.8-12,5.4c-2.9,3.6-4.4,8.7-4.4,15v9c0,6.3,1.4,11.4,4.3,15.1c2.8,3.6,6.7,5.5,11.5,5.5c4.8,0,8.6-1.3,11.2-3.9
	c2.5-2.5,4-6.3,4.3-11.2h-5.3c-0.4,4.1-1.3,6.9-2.8,8.6c-1.5,1.7-4,2.6-7.4,2.6c-3.4,0-6.1-1.5-7.9-4.3c-1.8-2.8-2.6-6.7-2.6-12
	v-9.3c0-5.3,0.9-9.4,2.8-12.1c1.9-2.8,4.7-4.3,8.2-4.3c3.1,0,5.4,0.9,6.9,2.8c1.4,1.8,2.3,4.5,2.6,8.5h5.3
	c-0.3-4.9-1.7-8.7-4.1-11.3C377.3,2.3,373.7,1,369.1,1z"/>
<path fill="#FFFFFF" d="M424.3,51.5H418c-0.3,0-0.5-0.2-0.5-0.5V28.5h-19V51c0,0.3-0.2,0.5-0.5,0.5h-6.3c-0.3,0-0.5-0.2-0.5-0.5V1
	c0-0.3,0.2-0.5,0.5-0.5h6.3c0.3,0,0.5,0.2,0.5,0.5v21.5h19V1c0-0.3,0.2-0.5,0.5-0.5h6.3c0.3,0,0.5,0.2,0.5,0.5v50
	C424.8,51.3,424.6,51.5,424.3,51.5z M418.5,50.5h5.3v-49h-5.3V23c0,0.3-0.2,0.5-0.5,0.5h-20c-0.3,0-0.5-0.2-0.5-0.5V1.5h-5.3v49h5.3
	V28c0-0.3,0.2-0.5,0.5-0.5h20c0.3,0,0.5,0.2,0.5,0.5V50.5z"/>
<path fill="#FFFFFF" d="M462.8,51.5h-6.3c-0.2,0-0.4-0.1-0.4-0.3l-19-36.7V51c0,0.3-0.2,0.5-0.5,0.5h-6.3c-0.3,0-0.5-0.2-0.5-0.5V1
	c0-0.3,0.2-0.5,0.5-0.5h6.3c0.2,0,0.4,0.1,0.4,0.3l19.1,36.9V1c0-0.3,0.2-0.5,0.5-0.5h6.2c0.3,0,0.5,0.2,0.5,0.5v50
	C463.3,51.3,463.1,51.5,462.8,51.5z M456.8,50.5h5.5v-49h-5.2v38.2c0,0.2-0.2,0.4-0.4,0.5c-0.2,0.1-0.5-0.1-0.6-0.3L436.3,1.5h-5.5
	v49h5.3v-38c0-0.2,0.2-0.4,0.4-0.5c0.2-0.1,0.5,0.1,0.6,0.3L456.8,50.5z"/>
<path fill="#FFFFFF" d="M486.4,52c-5.3,0-9.5-1.9-12.6-5.5c-3-3.6-4.6-8.8-4.7-15.4v-9.4c0-6.7,1.5-12.1,4.5-15.9
	c3-3.9,7.3-5.8,12.7-5.8c5.4,0,9.6,1.9,12.6,5.6c3,3.7,4.5,9,4.6,15.7v9c0,6.9-1.5,12.2-4.4,16C496.1,50.1,491.9,52,486.4,52z
	 M486.3,1c-5.1,0-9.1,1.8-11.9,5.4c-2.9,3.7-4.3,8.8-4.3,15.3v9.4c0.1,6.3,1.6,11.3,4.5,14.8c2.9,3.4,6.8,5.2,11.8,5.2
	c5.1,0,9.1-1.8,11.9-5.3c2.8-3.6,4.2-8.7,4.2-15.3v-9c-0.1-6.5-1.5-11.6-4.4-15.1C495.4,2.8,491.4,1,486.3,1z M486.4,47
	c-3.7,0-6.5-1.5-8.3-4.3c-1.8-2.8-2.7-6.9-2.7-12.2v-9.2c0-5.3,0.9-9.3,2.8-12.1c1.9-2.8,4.6-4.2,8.2-4.2c3.7,0,6.5,1.4,8.3,4.2
	c1.8,2.7,2.7,6.9,2.7,12.3v9.6c-0.1,5.4-1,9.3-2.7,11.9C492.9,45.7,490.1,47,486.4,47z M486.4,6c-3.2,0-5.7,1.3-7.4,3.8
	c-1.7,2.6-2.6,6.4-2.6,11.5v9.1c0,5.1,0.9,9,2.6,11.7c1.7,2.6,4.1,3.9,7.5,3.9c3.4,0,5.8-1.2,7.4-3.6c1.6-2.4,2.5-6.2,2.6-11.4v-9.6
	c0-5.3-0.8-9.2-2.5-11.8C492.2,7.3,489.7,6,486.4,6z"/>
<path fill="#FFFFFF" d="M536.5,51.5h-25.8c-0.3,0-0.5-0.2-0.5-0.5V1c0-0.3,0.2-0.5,0.5-0.5h6.3c0.3,0,0.5,0.2,0.5,0.5v44.5h19
	c0.3,0,0.5,0.2,0.5,0.5v5C537,51.3,536.7,51.5,536.5,51.5z M511.1,50.5H536v-4h-19c-0.3,0-0.5-0.2-0.5-0.5V1.5h-5.3V50.5z"/>
<path fill="#FFFFFF" d="M557.9,52c-5.3,0-9.5-1.9-12.6-5.5c-3-3.6-4.6-8.8-4.7-15.4v-9.4c0-6.7,1.5-12.1,4.5-15.9
	c3-3.9,7.3-5.8,12.7-5.8c5.4,0,9.6,1.9,12.6,5.6c3,3.7,4.5,9,4.6,15.7v9c0,6.9-1.5,12.2-4.4,16C567.6,50.1,563.4,52,557.9,52z
	 M557.8,1c-5.1,0-9.1,1.8-11.9,5.4c-2.9,3.7-4.3,8.8-4.3,15.3v9.4c0.1,6.3,1.6,11.3,4.5,14.8c2.9,3.4,6.8,5.2,11.8,5.2
	c5.1,0,9.1-1.8,11.9-5.3c2.8-3.6,4.2-8.7,4.2-15.3v-9c-0.1-6.5-1.5-11.6-4.4-15.1C566.9,2.8,562.9,1,557.8,1z M557.9,47
	c-3.7,0-6.5-1.5-8.3-4.3c-1.8-2.8-2.7-6.9-2.7-12.2v-9.2c0-5.3,0.9-9.3,2.8-12.1c1.9-2.8,4.6-4.2,8.2-4.2c3.7,0,6.5,1.4,8.3,4.2
	c1.8,2.7,2.7,6.9,2.7,12.3v9.6c-0.1,5.4-1,9.3-2.7,11.9C564.4,45.7,561.6,47,557.9,47z M557.9,6c-3.2,0-5.7,1.3-7.4,3.8
	c-1.7,2.6-2.6,6.4-2.6,11.5v9.1c0,5.1,0.9,9,2.6,11.7c1.7,2.6,4.1,3.9,7.5,3.9c3.4,0,5.8-1.2,7.4-3.6c1.6-2.4,2.5-6.2,2.6-11.4v-9.6
	c0-5.3-0.8-9.2-2.5-11.8C563.7,7.3,561.2,6,557.9,6z"/>
<path fill="#FFFFFF" d="M598.2,52c-5.5,0-9.9-1.9-13-5.5c-3.1-3.7-4.8-8.8-4.8-15.4v-9.8c0-7,1.4-12.4,4.3-15.9
	c2.9-3.6,7.2-5.4,12.9-5.4c4.8,0,8.7,1.3,11.5,3.9c2.7,2.6,4.3,6.4,4.6,11.3c0,0.1,0,0.1,0,0.2c0,0.3-0.2,0.5-0.5,0.5c0,0,0,0,0,0
	h-6.3c-0.3,0-0.5-0.2-0.5-0.5c-0.2-3-1.1-5.3-2.5-7c-1.4-1.6-3.5-2.4-6.3-2.4c-3.4,0-5.9,1.1-7.5,3.3c-1.6,2.3-2.4,6-2.5,11.1v10.3
	c0,4.9,0.9,8.8,2.8,11.4c1.8,2.6,4.4,3.9,7.8,3.9c3.2,0,5.7-0.8,7.3-2.4l0.8-0.7V32h-8.6c-0.3,0-0.5-0.2-0.5-0.5v-5
	c0-0.3,0.2-0.5,0.5-0.5h15.3c0.3,0,0.5,0.2,0.5,0.5v18.3c0,0.1,0,0.2-0.1,0.3l-1.1,1.3C609.1,50.1,604.4,52,598.2,52z M597.6,1
	c-5.4,0-9.5,1.7-12.2,5c-2.7,3.4-4.1,8.5-4.1,15.3v9.8c0.1,6.3,1.6,11.3,4.6,14.8c2.9,3.4,7.1,5.2,12.3,5.2c5.9,0,10.4-1.8,13.4-5.2
	l1-1.2V27h-14.3v4h8.6c0.3,0,0.5,0.2,0.5,0.5v11.6c0,0.1-0.1,0.3-0.2,0.4l-0.9,0.9c-1.9,1.7-4.6,2.6-8,2.6c-3.7,0-6.7-1.4-8.7-4.3
	c-2-2.8-3-6.8-3-12V20.4c0.1-5.4,1-9.2,2.7-11.6c1.7-2.5,4.5-3.8,8.3-3.8c3.1,0,5.5,0.9,7.1,2.8c1.5,1.7,2.3,4.1,2.7,7.1h5.3
	c-0.3-4.5-1.8-7.9-4.2-10.2C605.7,2.2,602.1,1,597.6,1z"/>
<path fill="#FFFFFF" d="M639.2,51.5H633c-0.3,0-0.5-0.2-0.5-0.5V32.5L618.4,1.2c-0.1-0.2-0.1-0.3,0-0.5s0.3-0.2,0.4-0.2h7.1
	c0.2,0,0.4,0.1,0.5,0.3l9.7,24l9.7-24c0.1-0.2,0.3-0.3,0.5-0.3h7.1c0.2,0,0.3,0.1,0.4,0.2s0.1,0.3,0,0.5l-14.1,31.3V51
	C639.7,51.3,639.5,51.5,639.2,51.5z M633.5,50.5h5.3V32.4c0-0.1,0-0.1,0-0.2l13.8-30.7h-6l-10,24.8c-0.2,0.4-0.8,0.4-0.9,0
	L625.6,1.5h-6l13.8,30.7c0,0.1,0,0.1,0,0.2V50.5z"/>
<path fill="#FFFFFF" d="M246,51.5C246,51.5,246,51.5,246,51.5h-8.2c-0.1,0-0.3-0.1-0.4-0.2l-4.2-4.8c-1.9,1.3-3.9,2.5-6,3.4
	c-2.3,1-4.8,1.5-7.4,1.6c-4.8-0.1-8.6-1.7-11.4-4.7c-2.9-3-4.4-6.7-4.4-10.9c0-6.1,3.1-11,9-14.5c-1-1.3-1.9-2.7-2.6-4.2
	c-0.8-1.6-1.3-3.3-1.3-5.1c0-3.2,1.1-6,3.1-8.2c2-2.2,4.8-3.4,8.2-3.5c3.5,0.1,6.3,1.2,8.3,3.5c2,2.3,3.1,5.1,3.1,8.3
	c0.1,4.6-2.5,8.4-7.7,11.2l9.4,11.8c1.6-2.3,2.9-4.9,3.7-7.6c0-0.1,0.1-0.2,0.3-0.3c0.1-0.1,0.3-0.1,0.4,0l6.2,2.5
	c0.2,0.1,0.4,0.4,0.3,0.6c-0.7,1.9-1.6,3.8-2.7,5.7c-1,1.8-2.2,3.4-3.4,4.9l7.8,9.6c0.1,0.1,0.2,0.2,0.2,0.4
	C246.5,51.3,246.3,51.5,246,51.5z M220.6,1.5c-3.1,0-5.7,1.1-7.5,3.1c-1.9,2.1-2.9,4.6-2.9,7.5c0,1.6,0.4,3.1,1.2,4.6
	c0.7,1.6,1.7,3.1,2.8,4.4c0.1,0.1,0.1,0.3,0.1,0.4s-0.1,0.3-0.2,0.4c-6,3.3-9,8-9,13.9c0,4,1.4,7.4,4.1,10.2
	c2.6,2.8,6.2,4.3,10.7,4.4c2.4,0,4.8-0.5,7-1.5c2.2-0.9,4.3-2.1,6.2-3.5c0.2-0.2,0.5-0.1,0.7,0.1l4.3,4.9h6.9l-7.4-9.2
	c-0.2-0.2-0.1-0.5,0-0.6c1.3-1.5,2.5-3.2,3.6-5.1c1-1.7,1.8-3.4,2.4-5.1l-5.2-2.1c-0.9,2.8-2.3,5.5-4.1,7.9
	c-0.1,0.1-0.2,0.2-0.4,0.2c-0.1,0-0.3-0.1-0.4-0.2l-10.2-12.8c-0.1-0.1-0.1-0.3-0.1-0.4c0-0.1,0.1-0.3,0.3-0.3
	c5.2-2.7,7.8-6.3,7.7-10.6c0-3-1-5.5-2.9-7.6C226.3,2.6,223.8,1.5,220.6,1.5z M219.8,45.6C219.8,45.6,219.8,45.6,219.8,45.6l-0.2,0
	c-2.6,0-4.8-0.9-6.7-2.8c-1.9-1.8-2.9-4.1-2.9-6.8c-0.1-3.8,2.4-7.3,7.4-10.2c0.2-0.1,0.5-0.1,0.6,0.1l11.7,14.5
	c0.2,0.2,0.1,0.5-0.1,0.7C226.4,44.1,223,45.6,219.8,45.6z M217.6,26.9c-4.4,2.7-6.6,5.8-6.6,9.1c0,2.5,0.9,4.5,2.6,6.1
	c1.7,1.7,3.7,2.5,6,2.5l0.2,0c2.9,0,5.9-1.3,9-4L217.6,26.9z M219.4,18.7c-0.1,0-0.2,0-0.3-0.1c-1.2-1.1-2.1-2.2-2.7-3.4
	c-0.8-1.2-1.2-2.3-1.2-3.5c0-1.5,0.6-2.8,1.7-3.8c1-1,2.3-1.5,3.9-1.5c1.6,0,3,0.5,4.1,1.5c1,1.1,1.5,2.3,1.5,3.8
	c0,1.4-0.5,2.7-1.4,3.8c-1,1.1-2.8,2.2-5.3,3.1C219.5,18.7,219.4,18.7,219.4,18.7z M220.6,7.4c-1.3,0-2.4,0.4-3.2,1.2
	c-0.9,0.9-1.4,1.9-1.4,3.1c0,0.9,0.4,1.9,1.1,2.9c0.6,1.1,1.4,2.1,2.4,3c2.1-0.9,3.7-1.8,4.6-2.7c0.8-0.9,1.2-2,1.2-3.2
	c0-1.2-0.4-2.3-1.2-3.1C223.1,7.8,222,7.4,220.6,7.4z"/>
<path fill="#FFFFFF" d="M15.2,51.5H0.5C0.2,51.5,0,51.3,0,51V1c0-0.3,0.2-0.5,0.5-0.5h14.2c4.7,0,8.2,1.1,10.6,3.4
	c2.4,2.3,3.6,5.7,3.6,10.2c0,2.4-0.6,4.5-1.8,6.3c-1,1.5-2.3,2.8-3.9,3.7c1.9,0.8,3.4,2.2,4.6,4.1c1.4,2.2,2.1,5,2.1,8.1
	c0,4.7-1.3,8.4-3.8,11.1C23.5,50.1,19.8,51.5,15.2,51.5z M1,50.5h14.2c4.4,0,7.8-1.3,10.1-3.8c2.4-2.5,3.6-6,3.6-10.4
	c0-2.9-0.6-5.5-1.9-7.6c-1.3-2.1-3-3.4-5.1-4.1c-0.2-0.1-0.3-0.2-0.4-0.4c0-0.2,0.1-0.4,0.3-0.5c1.9-0.9,3.4-2.3,4.5-3.9
	c1.1-1.7,1.7-3.6,1.7-5.8c0-4.2-1.1-7.3-3.3-9.4c-2.2-2.1-5.5-3.1-9.9-3.1H1V50.5z M15.3,46.5H6.8c-0.3,0-0.5-0.2-0.5-0.5V27
	c0-0.3,0.2-0.5,0.5-0.5h8.7c5.4,0,8.1,3.4,8.1,10c0,3.1-0.7,5.6-2.2,7.3C19.8,45.6,17.8,46.5,15.3,46.5z M7.3,45.5h8
	c2.2,0,4-0.8,5.2-2.3c1.3-1.6,2-3.8,2-6.7c0-6.1-2.3-9-7.1-9H7.3V45.5z M14.8,22.5h-8c-0.3,0-0.5-0.2-0.5-0.5V6
	c0-0.3,0.2-0.5,0.5-0.5h7.9c2.6,0,4.6,0.7,5.9,2c1.3,1.3,2,3.5,2,6.4c0,2.6-0.7,4.7-2.1,6.2C19,21.7,17.1,22.5,14.8,22.5z M7.3,21.5
	h7.5c2,0,3.6-0.7,4.9-2c1.2-1.4,1.9-3.2,1.9-5.6c0-2.6-0.6-4.5-1.7-5.7c-1.1-1.2-2.9-1.7-5.2-1.7H7.3V21.5z"/>
<path fill="#FFFFFF" d="M69,51.5h-6.7c-0.2,0-0.4-0.1-0.5-0.3l-8.7-20.7h-7.9V51c0,0.3-0.2,0.5-0.5,0.5h-6.3c-0.3,0-0.5-0.2-0.5-0.5
	V1c0-0.3,0.2-0.5,0.5-0.5h13.9c5,0,8.8,1.3,11.4,3.9c2.6,2.6,3.9,6.4,3.9,11.3c0,3.1-0.7,5.8-2.1,8.1c-1.3,2.2-3.2,3.9-5.5,5
	l9.4,21.5c0,0.1,0,0.1,0,0.2V51C69.5,51.3,69.3,51.5,69,51.5z M62.7,50.5h5.8L59,28.8c-0.1-0.3,0-0.5,0.3-0.7
	c2.4-1.1,4.2-2.7,5.5-4.9c1.3-2.1,2-4.7,2-7.6c0-4.6-1.2-8.2-3.6-10.6c-2.4-2.4-6-3.6-10.7-3.6H38.9v49h5.3V30
	c0-0.3,0.2-0.5,0.5-0.5h8.8c0.2,0,0.4,0.1,0.5,0.3L62.7,50.5z M52.3,25.5h-7.6c-0.3,0-0.5-0.2-0.5-0.5V6c0-0.3,0.2-0.5,0.5-0.5h7.5
	c6.1,0,9.2,3.4,9.2,10.1c0,3-0.8,5.4-2.5,7.2C57.3,24.6,55.1,25.5,52.3,25.5z M45.2,24.5h7.1c2.5,0,4.5-0.8,5.9-2.4
	c1.5-1.6,2.2-3.8,2.2-6.5c0-6.2-2.7-9.1-8.2-9.1h-7V24.5z"/>
<path fill="#FFFFFF" d="M109.1,51.5h-6.4c-0.2,0-0.4-0.1-0.5-0.4l-3.8-12.6H82.3l-3.8,12.6c-0.1,0.2-0.3,0.4-0.5,0.4h-6.4
	c-0.2,0-0.3-0.1-0.4-0.2s-0.1-0.3-0.1-0.4l16-50c0.1-0.2,0.3-0.3,0.5-0.3H93c0.2,0,0.4,0.1,0.5,0.3l16.1,50c0,0.2,0,0.3-0.1,0.4
	C109.4,51.4,109.2,51.5,109.1,51.5z M103,50.5h5.4l-15.8-49H88l-15.7,49h5.4l3.8-12.6c0.1-0.2,0.3-0.4,0.5-0.4h16.8
	c0.2,0,0.4,0.1,0.5,0.4L103,50.5z M97.1,33.5H83.5c-0.2,0-0.3-0.1-0.4-0.2c-0.1-0.1-0.1-0.3-0.1-0.4l6.8-23.2
	c0.1-0.2,0.3-0.4,0.5-0.4h0c0.2,0,0.4,0.1,0.5,0.4l6.8,23.2c0,0.2,0,0.3-0.1,0.4C97.4,33.4,97.3,33.5,97.1,33.5z M84.2,32.5h12.2
	l-6.1-20.9L84.2,32.5z"/>
<path fill="#FFFFFF" d="M122,51.5h-6.3c-0.3,0-0.5-0.2-0.5-0.5V1c0-0.3,0.2-0.5,0.5-0.5h6.3c0.3,0,0.5,0.2,0.5,0.5v50
	C122.5,51.3,122.3,51.5,122,51.5z M116.3,50.5h5.3v-49h-5.3V50.5z"/>
<path fill="#FFFFFF" d="M165.8,51.5h-6.3c-0.2,0-0.4-0.1-0.4-0.3l-19-36.7V51c0,0.3-0.2,0.5-0.5,0.5h-6.3c-0.3,0-0.5-0.2-0.5-0.5V1
	c0-0.3,0.2-0.5,0.5-0.5h6.3c0.2,0,0.4,0.1,0.4,0.3L159,37.6V1c0-0.3,0.2-0.5,0.5-0.5h6.2c0.3,0,0.5,0.2,0.5,0.5v50
	C166.3,51.3,166,51.5,165.8,51.5z M159.8,50.5h5.5v-49H160v38.2c0,0.2-0.2,0.4-0.4,0.5c-0.2,0-0.5-0.1-0.6-0.3L139.2,1.5h-5.5v49
	h5.3v-38c0-0.2,0.2-0.4,0.4-0.5c0.2-0.1,0.5,0.1,0.6,0.3L159.8,50.5z"/>
</svg>
