<?xml version="1.0" standalone="no"?>
<!-- Generator: Adobe Fireworks 10, Export SVG Extension by Aaron Beall (http://fireworks.abeall.com) . Version: 0.6.1  -->
<!DOCTYPE svg PUBLIC "-//W3C//DTD SVG 1.1//EN" "http://www.w3.org/Graphics/SVG/1.1/DTD/svg11.dtd">
<svg id="Untitled-%u30DA%u30FC%u30B8%201" viewBox="0 0 177 50" style="background-color:#ffffff00" version="1.1"
	xmlns="http://www.w3.org/2000/svg" xmlns:xlink="http://www.w3.org/1999/xlink" xml:space="preserve"
	x="0px" y="0px" width="177px" height="50px"
>
	<g id="%u30EC%u30A4%u30E4%u30FC%201">
		<g>
			<g>
				<path d="M 38.9609 0.1914 C 32.8179 -0.4858 26.0576 1.6465 21.2988 4.8525 C 20.0259 5.7124 18.8169 6.7319 17.7642 7.8521 C 15.0103 8.4229 12.8276 9.2173 12.0542 9.5791 C -2.6152 16.4658 -1.3413 25.9932 4.4077 29.0449 C 6.6328 30.2275 15.6001 32.7979 27.1426 25.9858 C 28.8359 24.9878 30.2588 23.8525 31.3975 22.6514 C 35.0918 21.7451 38.8794 20.0439 42.2285 17.5054 C 51.7852 10.2578 49.4067 1.3467 38.9609 0.1914 L 38.9609 0.1914 ZM 28.7852 18.5093 C 24.4858 19.4888 20.4927 18.9541 19.3555 16.9141 C 18.7368 15.8101 18.8735 14.1377 19.9438 12.3096 C 23.8311 11.2593 27.4956 11.2427 29.1235 12.8477 C 30.4751 14.1821 30.1904 16.332 28.7852 18.5093 ZM 7.5366 24.5962 C 6.0195 20.4312 11.1982 16.3467 13.9756 14.7217 C 13.8003 15.8486 13.8804 16.9619 14.2778 17.9932 C 15.5107 21.1685 19.0615 22.9941 23.5396 23.3525 C 23.0005 23.6768 22.4419 23.9736 21.8564 24.248 C 14.3325 27.7808 8.4292 27.0518 7.5366 24.5962 ZM 36.8726 14.6567 C 36.2153 15.2002 35.5068 15.6899 34.77 16.127 C 35.0469 13.8711 34.3716 11.7646 32.7017 10.2075 C 30.6636 8.3057 27.9478 7.4849 25.1533 7.2764 C 25.9805 6.7534 26.8936 6.2393 27.9033 5.7578 C 32.5356 3.5405 36.2778 3.5923 37.9175 3.9482 C 42.0894 4.8525 42.7827 9.7866 36.8726 14.6567 ZM 35.1362 1.3774 C 30.6504 1.7886 24.1138 5.2695 22.3784 7.2173 C 21.5093 7.2866 19.6328 7.4619 18.7285 7.5981 C 21.0684 4.5977 29.8169 0.751 35.1362 1.3774 ZM 23.355 7.1641 C 23.6831 7.1641 24.2017 7.1992 24.5337 7.1992 C 24.7798 6.5742 25.1431 6.2251 25.4897 5.8789 C 24.8984 6.0469 23.9038 6.6416 23.355 7.1641 ZM 23.9673 23.4624 C 24.5542 23.4624 27.0015 23.3833 27.3799 23.3442 C 25.9819 25.0112 21.5317 26.9604 17.8457 26.9355 C 19.8394 26.2168 21.8833 25.2681 23.9673 23.4624 ZM 8.1611 12.5679 C 12.2158 9.8354 17.877 7.729 18.2393 9.0942 C 18.5205 10.1382 14.9067 10.624 9.9375 13.9951 C 5.8013 16.7939 3.6616 20.958 2.5991 20.5303 C 1.1396 19.938 3.6729 15.5918 8.1611 12.5679 ZM 26.9766 7.5151 C 29.1792 8.3057 28.0259 9.2017 26.4639 9.3027 C 27.9399 8.3262 27.2583 7.7881 25.4497 7.335 C 25.7622 7.3511 26.5942 7.4292 26.9766 7.5151 ZM 29.3486 9.1812 C 29.2598 9.561 28.6519 9.5791 28.2163 9.4722 C 28.8623 9.2158 29.0879 8.8315 28.7227 8.3799 C 28.9663 8.5293 29.436 8.7988 29.3486 9.1812 ZM 30.4766 20.4941 C 27.0015 21.4282 23.1992 21.7505 20.1953 20.6826 C 19.9082 21.1914 20.1577 22.3706 20.7471 22.9287 C 19.8579 22.4248 19.251 21.6055 19.4419 20.375 C 18.083 19.752 16.9243 18.7998 16.0864 17.4351 C 15.3452 16.2246 14.9771 14.0386 14.9771 14.0386 L 16.8208 13.1387 C 16.1885 16.1489 16.9971 18.9731 20.8823 19.938 C 24.9517 20.9468 31.5215 18.3394 33.8818 17.2271 C 37.0371 15.7422 43.4795 11.8745 43.3389 6.2422 C 43.2813 4.0122 44.6597 5.4473 44.7993 8.0493 C 45.0703 13.1182 38.4214 18.3569 30.4766 20.4941 Z" fill="#0062b2"/>
			</g>
			<g>
				<path d="M 142.3862 26.7007 L 147.187 26.7007 L 147.187 10.3149 L 142.3862 10.3149 L 142.3862 26.7007 Z" fill="#000000"/>
				<path d="M 142.3862 8.6411 L 147.187 8.6411 L 147.187 5.0396 L 142.3862 5.0396 L 142.3862 8.6411 Z" fill="#000000"/>
				<path d="M 57.1831 26.7007 L 62.4395 26.7007 L 62.4395 3.6958 L 57.1831 3.6958 L 57.1831 26.7007 Z" fill="#000000"/>
				<path d="M 77.877 3.6958 L 71.0898 3.6958 L 62.5244 14.7842 L 71.0898 26.7007 L 77.915 26.7007 L 69.3716 14.7842 L 77.877 3.6958 L 77.877 3.6958 Z" fill="#000000"/>
				<path d="M 114.0815 9.5249 C 109.0889 9.5249 105.042 13.4121 105.042 18.2046 C 105.042 22.9995 109.0889 26.8867 114.0815 26.8867 C 119.0767 26.8867 123.124 22.9995 123.124 18.2046 C 123.124 13.4121 119.0767 9.5249 114.0815 9.5249 L 114.0815 9.5249 ZM 118.5791 19.0039 C 118.5791 21.4907 116.5635 23.5015 114.0815 23.5015 C 111.6006 23.5015 109.5864 21.4907 109.5864 19.0039 L 109.5864 17.4072 C 109.5864 14.9209 111.6006 12.9087 114.0815 12.9087 C 116.5635 12.9087 118.5791 14.9209 118.5791 17.4072 L 118.5791 19.0039 Z" fill="#000000"/>
				<path d="M 84.4541 9.5249 C 79.4629 9.5249 75.4136 13.4121 75.4136 18.2046 C 75.4136 22.9995 79.4629 26.8867 84.4541 26.8867 C 89.4487 26.8867 93.4946 22.9995 93.4946 18.2046 C 93.4946 13.4121 89.4487 9.5249 84.4541 9.5249 L 84.4541 9.5249 ZM 88.9512 19.0039 C 88.9512 21.4907 86.938 23.5015 84.4541 23.5015 C 81.9717 23.5015 79.9595 21.4907 79.9595 19.0039 L 79.9595 17.4072 C 79.9595 14.9209 81.9717 12.9087 84.4541 12.9087 C 86.938 12.9087 88.9512 14.9209 88.9512 17.4072 L 88.9512 19.0039 Z" fill="#000000"/>
				<path d="M 100.5093 20.9497 C 100.5093 20.4219 100.5093 17.0137 100.5093 13.459 L 105.3105 13.459 L 105.3105 10.313 L 100.5093 10.313 C 100.5093 7.2725 100.5093 4.7695 100.5093 4.7695 L 96.292 4.7695 L 96.292 10.313 L 93.5557 10.313 L 93.5557 13.459 L 96.292 13.459 L 96.292 21.1558 C 96.292 23.8042 98.3174 26.8184 102.1665 26.8184 C 103.1582 26.8184 105.0625 26.7007 105.0625 26.7007 L 105.0625 23.3916 C 105.0625 23.3916 104.4419 23.3916 103.1172 23.3916 C 101.793 23.3916 100.5093 22.4443 100.5093 20.9497 L 100.5093 20.9497 Z" fill="#000000"/>
				<path d="M 132.6616 9.7637 C 131.1304 9.7637 129.897 9.7637 129.312 9.7637 L 129.312 3.6958 L 124.5107 3.6958 L 124.5107 26.7007 L 129.312 26.7007 L 129.312 13.957 C 130.1196 13.957 131.8242 13.957 132.8701 13.957 C 134.2744 13.957 135.7651 14.9478 135.7651 16.8945 C 135.7651 18.8394 135.7651 26.7007 135.7651 26.7007 L 140.5664 26.7007 C 140.5664 26.7007 140.5664 23.3916 140.5664 17.1855 C 140.5664 10.9766 134.814 9.7637 132.6616 9.7637 L 132.6616 9.7637 Z" fill="#000000"/>
				<path d="M 168.3281 9.7637 C 166.1733 9.7637 160.23 9.7637 160.23 9.7637 L 160.23 13.957 C 160.23 13.957 167.127 13.957 168.5342 13.957 C 169.9409 13.957 171.4297 14.9478 171.4297 16.8945 C 171.4297 16.9316 171.4297 16.9731 171.4297 17.0137 C 170.7935 17.0137 166.4922 17.0137 163.9658 17.0137 C 161.2358 17.0137 159.2168 19.3975 159.2168 21.854 C 159.2168 24.3096 161.2441 26.7026 163.9448 26.7026 C 166.873 26.7026 171.5132 26.7026 171.5132 26.7026 L 171.5132 26.7007 L 176.2305 26.7007 C 176.2305 26.7007 176.2305 23.3916 176.2305 17.1855 C 176.2305 10.9766 170.4761 9.7637 168.3281 9.7637 L 168.3281 9.7637 ZM 171.3828 22.9722 C 171.3828 22.9722 165.2251 22.9722 164.7002 22.9722 C 164.1753 22.9722 163.5713 22.5342 163.5713 21.8447 C 163.5713 21.1528 164.1675 20.7139 164.7002 20.7139 C 165.2314 20.7139 171.3828 20.7139 171.3828 20.7139 L 171.3828 22.9722 Z" fill="#000000"/>
				<path d="M 156.7866 9.7637 C 155.2871 9.7861 154.271 10.4048 153.7261 10.814 L 153.7261 9.7354 L 148.9248 9.7354 L 148.9248 26.7007 L 153.7261 26.7007 L 153.7261 15.1455 C 153.8257 14.3799 154.394 13.9839 154.8276 13.9839 C 155.2695 13.9839 159.0488 13.9839 159.0488 13.9839 L 159.0488 9.7637 C 159.0488 9.7637 158.1611 9.7427 156.7866 9.7637 L 156.7866 9.7637 Z" fill="#000000"/>
			</g>
		</g>
		<g>
			<path d="M 57.0625 38.0625 L 57.0625 49.9375 L 57.9375 49.9375 L 57.9375 44.9375 L 59.4662 44.9375 L 63.5739 49.9375 L 64.6875 49.9375 L 60.5935 44.9375 C 63.224 44.8319 63.9375 43.0479 63.9375 41.4845 C 63.9375 39.4221 62.8171 38.0625 60.4391 38.0625 L 57.0625 38.0625 L 57.0625 38.0625 ZM 59.9758 38.9375 C 60.9178 38.9375 63.0625 38.9375 63.0625 41.5012 C 63.0625 44.0625 60.7634 44.0625 59.9758 44.0625 L 57.9375 44.0625 L 57.9375 38.9375 L 59.9758 38.9375 L 59.9758 38.9375 Z" fill="#0062b2"/>
			<path d="M 67.0625 38.208 L 67.0625 49.9375 L 67.9375 49.9375 L 67.9375 38.208 L 67.0625 38.208 L 67.0625 38.208 Z" fill="#0062b2"/>
			<path d="M 70.0625 38.0625 L 70.0625 49.995 L 70.9375 49.995 L 70.9375 38.9375 L 78.4899 49.995 L 79.9375 49.995 L 79.9375 38.0625 L 79.0625 38.0625 L 79.0625 49.12 L 71.5081 38.0625 L 70.0625 38.0625 L 70.0625 38.0625 Z" fill="#0062b2"/>
			<path d="M 91.7219 39.06 C 90.9673 38.6261 89.8442 38.0625 88.0333 38.0625 C 84.1027 38.0625 82.0625 41.0269 82.0625 44.2849 C 82.0625 46.772 83.5692 49.9375 88.1456 49.9375 C 90.0688 49.9375 91.3182 49.4184 91.9375 49.1366 L 91.9375 44.0625 L 87.907 44.0625 L 87.907 44.9375 L 91.0625 44.9375 L 91.0625 48.5909 C 90.111 48.9143 89.2266 49.0625 88.2018 49.0625 C 84.58 49.0625 82.9375 46.799 82.9375 44.2998 C 82.9375 41.3522 84.7905 38.9375 88.0052 38.9375 C 89.8302 38.9375 90.9252 39.664 91.4259 40.0047 L 91.7219 39.06 L 91.7219 39.06 Z" fill="#0062b2"/>
			<path d="M 100.9375 41.0625 L 100.9375 40.1177 C 100.9375 39.5154 100.9375 38.9375 102.1225 38.9375 C 102.2274 38.9375 102.3624 38.9485 102.5124 38.9603 L 102.6024 38.125 C 102.4374 38.0938 102.2874 38.0625 102.0625 38.0625 C 100.0625 38.0625 100.0625 39.5035 100.0625 40.1059 L 100.0625 41.0625 L 98.8625 41.0625 L 98.8625 41.9375 L 100.0625 41.9375 L 100.0625 49.9375 L 100.9375 49.9375 L 100.9375 41.9375 L 102.6174 41.9375 L 102.6174 41.0625 L 100.9375 41.0625 L 100.9375 41.0625 Z" fill="#0062b2"/>
			<path d="M 104.0625 45.5018 C 104.0625 48.1865 105.8184 49.9375 108.0067 49.9375 C 110.1951 49.9375 111.9375 48.1723 111.9375 45.5018 C 111.9375 42.8455 110.1951 41.0625 107.993 41.0625 C 105.8184 41.0625 104.0625 42.8313 104.0625 45.5018 L 104.0625 45.5018 ZM 104.9375 45.5018 C 104.9375 42.9161 106.5891 41.9375 107.993 41.9375 C 109.3969 41.9375 111.0625 42.9161 111.0625 45.5018 C 111.0625 48.0734 109.4244 49.0625 108.0067 49.0625 C 106.5753 49.0625 104.9375 48.0734 104.9375 45.5018 L 104.9375 45.5018 Z" fill="#0062b2"/>
			<path d="M 114.9375 49.9375 L 114.9375 45.1175 C 114.9375 43.9531 115.0725 43.0687 116.0775 42.3759 C 116.6024 42.0074 117.1874 41.8761 117.8474 41.9375 L 117.8474 41.0625 C 117.3074 41.0325 115.8975 41.0025 114.9375 42.5823 L 114.9375 41.3082 L 114.0625 41.3082 L 114.0625 49.9375 L 114.9375 49.9375 L 114.9375 49.9375 Z" fill="#0062b2"/>
			<path d="M 125.0625 38.2755 L 125.0625 49.995 L 130.4973 49.995 L 130.4973 49.12 L 125.9375 49.12 L 125.9375 38.2755 L 125.0625 38.2755 L 125.0625 38.2755 Z" fill="#0062b2"/>
			<path d="M 133.0625 38.208 L 133.0625 49.9375 L 133.9375 49.9375 L 133.9375 38.208 L 133.0625 38.208 L 133.0625 38.208 Z" fill="#0062b2"/>
			<path d="M 136.0625 38.0625 L 136.0625 49.995 L 136.9375 49.995 L 136.9375 38.9375 L 144.4899 49.995 L 145.9375 49.995 L 145.9375 38.0625 L 145.0625 38.0625 L 145.0625 49.12 L 137.5081 38.0625 L 136.0625 38.0625 L 136.0625 38.0625 Z" fill="#0062b2"/>
			<path d="M 148.9375 38.208 L 148.0625 38.208 L 148.0625 49.9375 L 148.9375 49.9375 L 148.9375 43.6378 L 154.8173 49.9375 L 156.1072 49.9375 L 149.9875 43.4878 L 155.5822 38.208 L 154.3073 38.208 L 148.9375 43.3078 L 148.9375 38.208 L 148.9375 38.208 Z" fill="#0062b2"/>
		</g>
	</g>
</svg>