<?xml version="1.0" standalone="no"?>
<!-- Generator: Adobe Fireworks 10, Export SVG Extension by Aaron Beall (http://fireworks.abeall.com) . Version: 0.6.1  -->
<!DOCTYPE svg PUBLIC "-//W3C//DTD SVG 1.1//EN" "http://www.w3.org/Graphics/SVG/1.1/DTD/svg11.dtd">
<svg id="Untitled-%u30DA%u30FC%u30B8%201" viewBox="0 0 142 25" style="background-color:#ffffff00" version="1.1"
	xmlns="http://www.w3.org/2000/svg" xmlns:xlink="http://www.w3.org/1999/xlink" xml:space="preserve"
	x="0px" y="0px" width="142px" height="25px"
>
	<g id="%u30EC%u30A4%u30E4%u30FC%201">
		<g>
			<g>
				<path d="M 30.93 0.2114 C 26.0155 -0.3306 20.6073 1.3755 16.8003 3.9402 C 15.7819 4.6282 14.8148 5.4438 13.9725 6.3398 C 11.7694 6.7964 10.0233 7.4321 9.4046 7.7214 C -2.331 13.231 -1.3118 20.8528 3.2874 23.2942 C 5.0674 24.2402 12.2413 26.2964 21.4753 20.8469 C 22.83 20.0483 23.9683 19.1401 24.8792 18.1792 C 27.8347 17.4543 30.8647 16.0933 33.544 14.0625 C 41.1893 8.2644 39.2866 1.1355 30.93 0.2114 L 30.93 0.2114 ZM 22.7894 14.8657 C 19.3499 15.6492 16.1553 15.2214 15.2456 13.5894 C 14.7507 12.7063 14.86 11.3684 15.7163 9.9058 C 18.826 9.0657 21.7577 9.0522 23.0601 10.3364 C 24.1413 11.4038 23.9136 13.1238 22.7894 14.8657 ZM 5.7905 19.7351 C 4.5768 16.4031 8.7198 13.1355 10.9417 11.8354 C 10.8015 12.7371 10.8655 13.6277 11.1835 14.4526 C 12.1698 16.9929 15.0104 18.4536 18.5928 18.7402 C 18.1616 18.9995 17.7147 19.2371 17.2464 19.4565 C 11.2272 22.2827 6.5046 21.6997 5.7905 19.7351 ZM 29.2593 11.7837 C 28.7335 12.2183 28.1667 12.6101 27.5772 12.9597 C 27.7987 11.155 27.2585 9.47 25.9225 8.2241 C 24.2921 6.7026 22.1194 6.0461 19.8839 5.8794 C 20.5456 5.4609 21.2761 5.0496 22.0839 4.6646 C 25.7897 2.8906 28.7835 2.9321 30.0952 3.2168 C 33.4327 3.9402 33.9874 7.8875 29.2593 11.7837 ZM 27.8702 1.1602 C 24.2816 1.489 19.0522 4.2739 17.6639 5.832 C 16.9686 5.8875 15.4675 6.0278 14.744 6.1367 C 16.6159 3.7363 23.6147 0.6589 27.8702 1.1602 ZM 18.4452 5.7896 C 18.7077 5.7896 19.1226 5.8176 19.3882 5.8176 C 19.585 5.3176 19.8757 5.0383 20.153 4.7612 C 19.68 4.8958 18.8843 5.3716 18.4452 5.7896 ZM 18.9351 18.8281 C 19.4046 18.8281 21.3624 18.7649 21.6651 18.7336 C 20.5468 20.0671 16.9866 21.6265 14.0378 21.6067 C 15.6327 21.0317 17.2679 20.2727 18.9351 18.8281 ZM 6.2901 10.1125 C 9.5339 7.9265 14.0628 6.2415 14.3526 7.3335 C 14.5776 8.1687 11.6866 8.5574 7.7112 11.2544 C 4.4022 13.4934 2.6905 16.8247 1.8405 16.4824 C 0.6729 16.0085 2.6995 12.5317 6.2901 10.1125 ZM 21.3425 6.0703 C 23.1046 6.7026 22.1819 7.4194 20.9323 7.5005 C 22.1132 6.7192 21.5679 6.2886 20.121 5.9263 C 20.371 5.939 21.0366 6.0015 21.3425 6.0703 ZM 23.2401 7.4031 C 23.169 7.707 22.6827 7.7214 22.3343 7.636 C 22.8511 7.4309 23.0316 7.1235 22.7393 6.7622 C 22.9343 6.8816 23.3101 7.0972 23.2401 7.4031 ZM 24.1425 16.4536 C 21.3624 17.2007 18.3206 17.4585 15.9175 16.6042 C 15.6878 17.0112 15.8874 17.9546 16.3589 18.4011 C 15.6475 17.998 15.162 17.3425 15.3148 16.3582 C 14.2276 15.8599 13.3007 15.0981 12.6304 14.0063 C 12.0374 13.0378 11.7429 11.2891 11.7429 11.2891 L 13.2178 10.5691 C 12.712 12.9773 13.3589 15.2368 16.4671 16.0085 C 19.7225 16.8157 24.9784 14.7297 26.8667 13.8398 C 29.3909 12.6519 34.5448 9.5579 34.4323 5.052 C 34.3862 3.2681 35.489 4.416 35.6006 6.4976 C 35.8174 10.5527 30.4984 14.7437 24.1425 16.4536 Z" fill="#0062b2"/>
			</g>
			<g>
				<path d="M 114.4702 21.4187 L 118.3109 21.4187 L 118.3109 8.3101 L 114.4702 8.3101 L 114.4702 21.4187 Z" fill="#000000"/>
				<path d="M 114.4702 6.9712 L 118.3109 6.9712 L 118.3109 4.0898 L 114.4702 4.0898 L 114.4702 6.9712 Z" fill="#000000"/>
				<path d="M 46.3077 21.4187 L 50.5128 21.4187 L 50.5128 3.0149 L 46.3077 3.0149 L 46.3077 21.4187 Z" fill="#000000"/>
				<path d="M 62.8628 3.0149 L 57.4331 3.0149 L 50.5807 11.8855 L 57.4331 21.4187 L 62.8932 21.4187 L 56.0585 11.8855 L 62.8628 3.0149 L 62.8628 3.0149 Z" fill="#000000"/>
				<path d="M 91.8265 7.6782 C 87.8323 7.6782 84.5948 10.7878 84.5948 14.6218 C 84.5948 18.4578 87.8323 21.5676 91.8265 21.5676 C 95.8226 21.5676 99.0604 18.4578 99.0604 14.6218 C 99.0604 10.7878 95.8226 7.6782 91.8265 7.6782 L 91.8265 7.6782 ZM 95.4245 15.2612 C 95.4245 17.2507 93.812 18.8594 91.8265 18.8594 C 89.8417 18.8594 88.2303 17.2507 88.2303 15.2612 L 88.2303 13.9839 C 88.2303 11.9949 89.8417 10.3853 91.8265 10.3853 C 93.812 10.3853 95.4245 11.9949 95.4245 13.9839 L 95.4245 15.2612 Z" fill="#000000"/>
				<path d="M 68.1245 7.6782 C 64.1315 7.6782 60.8921 10.7878 60.8921 14.6218 C 60.8921 18.4578 64.1315 21.5676 68.1245 21.5676 C 72.1202 21.5676 75.3569 18.4578 75.3569 14.6218 C 75.3569 10.7878 72.1202 7.6782 68.1245 7.6782 L 68.1245 7.6782 ZM 71.7222 15.2612 C 71.7222 17.2507 70.1116 18.8594 68.1245 18.8594 C 66.1385 18.8594 64.5288 17.2507 64.5288 15.2612 L 64.5288 13.9839 C 64.5288 11.9949 66.1385 10.3853 68.1245 10.3853 C 70.1116 10.3853 71.7222 11.9949 71.7222 13.9839 L 71.7222 15.2612 Z" fill="#000000"/>
				<path d="M 80.9686 16.8179 C 80.9686 16.3958 80.9686 13.6692 80.9686 10.8254 L 84.8096 10.8254 L 84.8096 8.3086 L 80.9686 8.3086 C 80.9686 5.8762 80.9686 3.8738 80.9686 3.8738 L 77.5948 3.8738 L 77.5948 8.3086 L 75.4058 8.3086 L 75.4058 10.8254 L 77.5948 10.8254 L 77.5948 16.9829 C 77.5948 19.1016 79.2151 21.5129 82.2944 21.5129 C 83.0878 21.5129 84.6112 21.4187 84.6112 21.4187 L 84.6112 18.7715 C 84.6112 18.7715 84.1147 18.7715 83.055 18.7715 C 81.9956 18.7715 80.9686 18.0137 80.9686 16.8179 L 80.9686 16.8179 Z" fill="#000000"/>
				<path d="M 106.6905 7.8691 C 105.4655 7.8691 104.4788 7.8691 104.0108 7.8691 L 104.0108 3.0149 L 100.1698 3.0149 L 100.1698 21.4187 L 104.0108 21.4187 L 104.0108 11.2239 C 104.6569 11.2239 106.0206 11.2239 106.8573 11.2239 C 107.9808 11.2239 109.1733 12.0164 109.1733 13.5737 C 109.1733 15.1296 109.1733 21.4187 109.1733 21.4187 L 113.0143 21.4187 C 113.0143 21.4187 113.0143 18.7715 113.0143 13.8066 C 113.0143 8.8394 108.4124 7.8691 106.6905 7.8691 L 106.6905 7.8691 Z" fill="#000000"/>
				<path d="M 135.2237 7.8691 C 133.4999 7.8691 128.7452 7.8691 128.7452 7.8691 L 128.7452 11.2239 C 128.7452 11.2239 134.2628 11.2239 135.3885 11.2239 C 136.514 11.2239 137.705 12.0164 137.705 13.5737 C 137.705 13.6035 137.705 13.6367 137.705 13.6692 C 137.196 13.6692 133.7549 13.6692 131.7339 13.6692 C 129.5499 13.6692 127.9346 15.5762 127.9346 17.5415 C 127.9346 19.5059 129.5565 21.4204 131.7171 21.4204 C 134.0596 21.4204 137.7718 21.4204 137.7718 21.4204 L 137.7718 21.4187 L 141.5456 21.4187 C 141.5456 21.4187 141.5456 18.7715 141.5456 13.8066 C 141.5456 8.8394 136.9421 7.8691 135.2237 7.8691 L 135.2237 7.8691 ZM 137.6675 18.436 C 137.6675 18.436 132.7413 18.436 132.3214 18.436 C 131.9014 18.436 131.4183 18.0854 131.4183 17.5339 C 131.4183 16.9805 131.8952 16.6294 132.3214 16.6294 C 132.7464 16.6294 137.6675 16.6294 137.6675 16.6294 L 137.6675 18.436 Z" fill="#000000"/>
				<path d="M 125.9905 7.8691 C 124.7909 7.8872 123.978 8.3821 123.5421 8.7095 L 123.5421 7.8464 L 119.701 7.8464 L 119.701 21.4187 L 123.5421 21.4187 L 123.5421 12.1746 C 123.6218 11.562 124.0765 11.2454 124.4233 11.2454 C 124.7769 11.2454 127.8003 11.2454 127.8003 11.2454 L 127.8003 7.8691 C 127.8003 7.8691 127.0901 7.8523 125.9905 7.8691 L 125.9905 7.8691 Z" fill="#000000"/>
			</g>
		</g>
	</g>
</svg>