<?xml version="1.0" standalone="no"?>
<!-- Generator: Adobe Fireworks 10, Export SVG Extension by Aaron Beall (http://fireworks.abeall.com) . Version: 0.6.1  -->
<!DOCTYPE svg PUBLIC "-//W3C//DTD SVG 1.1//EN" "http://www.w3.org/Graphics/SVG/1.1/DTD/svg11.dtd">
<svg id="Untitled-%u30DA%u30FC%u30B8%201" viewBox="0 0 32 24" style="background-color:#ffffff00" version="1.1"
	xmlns="http://www.w3.org/2000/svg" xmlns:xlink="http://www.w3.org/1999/xlink" xml:space="preserve"
	x="0px" y="0px" width="32px" height="24px"
>
	<g id="%u30EC%u30A4%u30E4%u30FC%201">
		<path d="M -0.5 21.2573 C -0.5 22.7726 0.6934 24 2.1667 24 L 28.8333 24 C 30.3066 24 31.5 22.7726 31.5 21.2573 L 31.5 2.7427 C 31.5 1.2274 30.3066 0 28.8333 0 L 2.1667 0 C 0.6934 0 -0.5 1.2274 -0.5 2.7427 L -0.5 21.2573 ZM 9.3132 12.0206 L 3.213 5.7053 C 2.707 5.1841 2.707 4.3407 3.213 3.8198 C 3.7201 3.2983 4.5404 3.2983 5.0462 3.8198 L 14.7799 13.8446 C 15.1731 14.2422 15.8204 14.2422 16.2071 13.8446 L 25.9531 3.8198 C 26.4596 3.2983 27.2799 3.2983 27.7865 3.8198 C 28.293 4.3407 28.293 5.1841 27.7865 5.7053 L 21.6797 12.0206 L 27.7865 18.2949 C 28.293 18.8159 28.293 19.6593 27.7865 20.1808 C 27.2799 20.7017 26.4596 20.7017 25.9531 20.1808 L 19.8529 13.9132 C 19.8529 13.9132 17.9466 15.9087 17.6003 16.2651 C 17.0599 16.8066 16.3131 17.1428 15.5 17.1428 C 14.6732 17.1428 13.9264 16.7999 13.3867 16.2444 C 13.0332 15.8878 11.1399 13.9132 11.1399 13.9132 L 5.0462 20.1808 C 4.5404 20.7017 3.7201 20.7017 3.213 20.1808 C 2.707 19.6593 2.707 18.8159 3.213 18.2949 L 9.3132 12.0206 Z" fill="#ffffff"/>
	</g>
</svg>