<?xml version="1.0" encoding="utf-8"?>
<!-- Generator: Adobe Illustrator 16.0.3, SVG Export Plug-In . SVG Version: 6.00 Build 0)  -->
<!DOCTYPE svg PUBLIC "-//W3C//DTD SVG 1.1//EN" "http://www.w3.org/Graphics/SVG/1.1/DTD/svg11.dtd">
<svg version="1.1" id="レイヤー_1" xmlns="http://www.w3.org/2000/svg" xmlns:xlink="http://www.w3.org/1999/xlink" x="0px"
	 y="0px" width="12px" height="12px" viewBox="0 0 12 12" enable-background="new 0 0 12 12" xml:space="preserve">
<path fill="#FFFFFF" d="M12,9.5c0,0.2,0,0.4-0.2,0.5l-1.7,1.7c-0.1,0.1-0.2,0.2-0.3,0.2S9.6,12,9.5,12H9.4l-0.2,0
	c-0.2,0-0.4,0-0.8-0.1c-0.4-0.1-0.8-0.2-1.3-0.4c-0.5-0.2-1.1-0.5-1.8-1S4,9.5,3.2,8.8C2.7,8.2,2.2,7.6,1.8,7.1
	C1.4,6.5,1.1,6,0.8,5.6C0.6,5.2,0.4,4.7,0.3,4.4C0.2,4,0.1,3.7,0.1,3.4C0,3.2,0,2.9,0,2.8l0-0.3c0-0.1,0.1-0.2,0.1-0.4
	C0.2,2,0.3,1.9,0.4,1.9L2,0.2C2.2,0.1,2.3,0,2.4,0c0.1,0,0.2,0,0.3,0.1C2.8,0.2,2.9,0.2,3,0.3l1.4,2.6C4.4,3,4.4,3.2,4.4,3.4
	c0,0.2-0.1,0.3-0.2,0.4L3.5,4.4c0,0,0,0,0,0.1l0,0.1c0,0.2,0.1,0.4,0.2,0.6C3.8,5.4,4,5.6,4.2,5.9c0.2,0.3,0.5,0.6,0.9,1
	c0.4,0.4,0.7,0.7,1,0.9C6.4,8,6.6,8.2,6.8,8.3C7,8.4,7.2,8.5,7.3,8.5l0.2,0l0.1,0c0,0,0.1,0,0.1,0l0.7-0.7c0.2-0.1,0.3-0.2,0.5-0.2
	c0.1,0,0.3,0,0.3,0.1h0L11.7,9C11.9,9.2,12,9.3,12,9.5z"/>
</svg>
