<?xml version="1.0" encoding="utf-8"?>
<!-- Generator: Adobe Illustrator 16.0.3, SVG Export Plug-In . SVG Version: 6.00 Build 0)  -->
<!DOCTYPE svg PUBLIC "-//W3C//DTD SVG 1.1//EN" "http://www.w3.org/Graphics/SVG/1.1/DTD/svg11.dtd">
<svg version="1.1" id="レイヤー_1" xmlns="http://www.w3.org/2000/svg" xmlns:xlink="http://www.w3.org/1999/xlink" x="0px"
	 y="0px" width="20px" height="20px" viewBox="0 0 20 20" enable-background="new 0 0 20 20" xml:space="preserve">
<path fill="#0060B2" d="M19.7,18.3L15,13.6c-0.1-0.1-0.3-0.199-0.5-0.199c1.1-1.4,1.8-3.2,1.8-5.2c0-4.5-3.7-8.2-8.2-8.2
	C3.6,0,0,3.7,0,8.2s3.7,8.2,8.2,8.2c2,0,3.8-0.7,5.2-1.801c0,0.2,0.1,0.301,0.199,0.5l4.7,4.7c0.2,0.2,0.5,0.3,0.7,0.3
	s0.5-0.1,0.7-0.3C20.1,19.3,20.1,18.7,19.7,18.3z M8.2,14.4C4.8,14.4,2,11.6,2,8.2C2,4.8,4.8,2,8.2,2c3.399,0,6.2,2.8,6.2,6.2
	C14.4,11.6,11.6,14.4,8.2,14.4z"/>
</svg>
